<?xml version="1.0" encoding="UTF-8"?>
<svg xmlns="http://www.w3.org/2000/svg" width="390" height="844" viewBox="0 0 390 844" role="img" aria-label="버스 혼잡도 분석 중 화면">
  <title>버스 혼잡도 분석 중 화면</title>
  <rect x="0" y="0" width="390" height="844" rx="0" fill="#FFFFFF" stroke="none" stroke-width="1"/>
  <rect x="20" y="24" width="52" height="52" rx="8" fill="#F4F5F5" stroke="none" stroke-width="1"/>
<g transform="translate(33 37) scale(1.0833333333333333)"><path d="M19 12H5M12 19l-7-7 7-7" fill="none" stroke="#191919" stroke-width="2" stroke-linecap="round" stroke-linejoin="round"/></g>
<text x="366" y="50" font-family="Noto Sans CJK KR, Malgun Gothic, sans-serif" font-size="16" font-weight="700" fill="#555555" text-anchor="end" dominant-baseline="middle" letter-spacing="0">보문역 2번 출구 정류장</text>
<circle cx="195" cy="184" r="54" fill="#FFF0E6" stroke="none" stroke-width="1"/>
<circle cx="195" cy="184" r="33" fill="none" stroke="#B8560A" stroke-width="6"/>
<line x1="195" y1="151" x2="195" y2="164" stroke="#FFFFFF" stroke-width="6" stroke-linecap="round"/>
<text x="195" y="280" font-family="Noto Sans CJK KR, Malgun Gothic, sans-serif" font-size="30" font-weight="800" fill="#191919" text-anchor="middle" letter-spacing="0"><tspan x="195" dy="0">두 정류장을 잇는 버스를</tspan><tspan x="195" dy="41">비교하고 있어요</tspan></text>
<text x="195" y="370" font-family="Noto Sans CJK KR, Malgun Gothic, sans-serif" font-size="18" font-weight="500" fill="#555555" text-anchor="middle" dominant-baseline="middle" letter-spacing="0">성북구청에서 출발해요.</text>
<rect x="40" y="414" width="310" height="232" rx="8" fill="#F4F5F5" stroke="none" stroke-width="1"/>
<circle cx="72" cy="462" r="14" fill="#2F7248" stroke="none" stroke-width="1"/>
<g transform="translate(64 454) scale(0.6666666666666666)"><path d="m5 12 4 4L19 6" fill="none" stroke="#FFFFFF" stroke-width="2.5" stroke-linecap="round" stroke-linejoin="round"/></g>
<text x="102" y="462" font-family="Noto Sans CJK KR, Malgun Gothic, sans-serif" font-size="18" font-weight="700" fill="#191919" text-anchor="start" dominant-baseline="middle" letter-spacing="0">두 정류장 운행 버스 확인</text>
<line x1="72" y1="480" x2="72" y2="516" stroke="#E5E5E5" stroke-width="2" stroke-linecap="round"/>
<circle cx="72" cy="534" r="14" fill="#FFF0E6" stroke="#B8560A" stroke-width="2"/>
<circle cx="72" cy="534" r="5" fill="#B8560A" stroke="none" stroke-width="1"/>
<text x="102" y="534" font-family="Noto Sans CJK KR, Malgun Gothic, sans-serif" font-size="18" font-weight="700" fill="#9C4708" text-anchor="start" dominant-baseline="middle" letter-spacing="0">구간별 탑승 인원 예측</text>
<line x1="72" y1="552" x2="72" y2="582" stroke="#E5E5E5" stroke-width="2" stroke-linecap="round"/>
<circle cx="72" cy="598" r="14" fill="#FFFFFF" stroke="#E5E5E5" stroke-width="2"/>
<text x="102" y="598" font-family="Noto Sans CJK KR, Malgun Gothic, sans-serif" font-size="18" font-weight="600" fill="#5F5F5F" text-anchor="start" dominant-baseline="middle" letter-spacing="0">앉기 편한 시간과 도착시간 비교</text>
<text x="195" y="774" font-family="Noto Sans CJK KR, Malgun Gothic, sans-serif" font-size="16" font-weight="600" fill="#555555" text-anchor="middle" letter-spacing="0"><tspan x="195" dy="0">과거 승하차 패턴과 현재 운행 정보를</tspan><tspan x="195" dy="23">함께 사용해요.</tspan></text>
</svg>
